<svg width="20" height="20" viewBox="0 0 20 20" fill="none" xmlns="http://www.w3.org/2000/svg">
<path fill-rule="evenodd" clip-rule="evenodd" d="M2.5 11.75C2.91421 11.75 3.25 12.0858 3.25 12.5V15.8333C3.25 16.0764 3.34658 16.3096 3.51849 16.4815C3.69039 16.6534 3.92355 16.75 4.16667 16.75H15.8333C16.0764 16.75 16.3096 16.6534 16.4815 16.4815C16.6534 16.3096 16.75 16.0764 16.75 15.8333V12.5C16.75 12.0858 17.0858 11.75 17.5 11.75C17.9142 11.75 18.25 12.0858 18.25 12.5V15.8333C18.25 16.4743 17.9954 17.089 17.5422 17.5422C17.089 17.9954 16.4743 18.25 15.8333 18.25H4.16667C3.52573 18.25 2.91104 17.9954 2.45783 17.5422C2.00461 17.089 1.75 16.4743 1.75 15.8333V12.5C1.75 12.0858 2.08579 11.75 2.5 11.75Z" fill="#1C1C1C"/>
<path fill-rule="evenodd" clip-rule="evenodd" d="M5.30268 7.80268C5.59557 7.50978 6.07044 7.50978 6.36334 7.80268L9.99967 11.439L13.636 7.80268C13.9289 7.50978 14.4038 7.50978 14.6967 7.80268C14.9896 8.09557 14.9896 8.57044 14.6967 8.86334L10.53 13.03C10.2371 13.3229 9.76224 13.3229 9.46934 13.03L5.30268 8.86334C5.00978 8.57044 5.00978 8.09557 5.30268 7.80268Z" fill="#1C1C1C"/>
<path fill-rule="evenodd" clip-rule="evenodd" d="M10 1.75C10.4142 1.75 10.75 2.08579 10.75 2.5V12.5C10.75 12.9142 10.4142 13.25 10 13.25C9.58579 13.25 9.25 12.9142 9.25 12.5V2.5C9.25 2.08579 9.58579 1.75 10 1.75Z" fill="#1C1C1C"/>
</svg>
